# xmcd
#
# Track frame offsets:
#	150
#	6210
#	15895
#	32765
#	45365
#	48730
#	56977
#	72565
#	85640
#	92447
#	105240
#	131900
#	149237
#	161745
#	173812
#	178737
#	194570
#
# Disc length: 2750
#
# Revision: 1
# Processed by: cddbd v1.5.1PL0 Copyright (c) Steve Scherf et al.
# Submitted via: ExactAudioCopy v0.95a3
# Normalized: r0:TDELIM( - )
#
DISCID=eb0abc11
DTITLE=Nitty Gritty Dirt Band - Symphonion Dream
DYEAR=1975
DGENRE=Country
TTITLE0=Winterwhite - H.Bee
TTITLE1=Raleigh-Durham Reel - Jeff Hanna, McEuen, Fadden, Ibby
TTITLE2=Battle of New Orleans - Jimmy Driftwood
TTITLE3=Bayou Jubilee - Jeff Hanna
TTITLE4=Sally was a Goodun - McEuen, Jimmie Fadden, Jimmy Ibbotson, Hanna
TTITLE5=Hey Good Lookin - Hank Williams
TTITLE6=Classical Banjo I - McEuen
TTITLE7=Daddy was a Sailor - Jimmie Fadden
TTITLE8=Sleeping on the Beach - Jimmie Fadden
TTITLE9=Santa Monica Pier - W. McEuen
TTITLE10=Rippling Waters - Jimmy Ibbotson
TTITLE11=All I Have To Do Is Dream - D. Bryant
TTITLE12=Mother of Love - Ken Edwards
TTITLE13=The Moon Just Turned Blue - J D Souther
TTITLE14=Gotta Travel On - P Clayton, L Ehrlich, D Lazar
TTITLE15=Joshua Come Home - Jimmy Ibbotson
TTITLE16=Solstice - H Bee
EXTD=
EXTT0=
EXTT1=
EXTT2=
EXTT3=
EXTT4=
EXTT5=
EXTT6=
EXTT7=
EXTT8=
EXTT9=
EXTT10=
EXTT11=
EXTT12=
EXTT13=
EXTT14=
EXTT15=
EXTT16=
PLAYORDER=
